<svg width="226" height="226" viewBox="0 0 226 226" fill="none" xmlns="http://www.w3.org/2000/svg">
<rect width="226" height="226" fill="#F5F5F5"/>
<g filter="url(#filter0_d_0_1)">
<path d="M4 6H204V206H4V6Z" fill="#4EDEB3"/>
<path d="M4 6H204V206H4V6Z" stroke="black"/>
</g>
<path d="M71.2141 68C78.6474 68 85.0474 69.65 90.4141 72.95C95.8141 76.2167 99.9641 80.6833 102.864 86.35C105.797 92.0167 107.264 98.4 107.264 105.5C107.264 110.833 106.381 115.783 104.614 120.35C102.881 124.883 100.414 128.85 97.2141 132.25C94.0141 135.65 90.2141 138.3 85.8141 140.2C81.4141 142.067 76.5474 143 71.2141 143H43.2641V142.8H52.2141V68.2H43.2641V68H71.2141ZM61.7641 142.8H71.2141C75.8141 142.8 79.6807 141.733 82.8141 139.6C85.9474 137.433 88.4641 134.567 90.3641 131C92.2641 127.4 93.6307 123.383 94.4641 118.95C95.2974 114.517 95.7141 110.017 95.7141 105.45C95.7141 100.917 95.2474 96.45 94.3141 92.05C93.3807 87.6167 91.9307 83.6167 89.9641 80.05C88.0307 76.45 85.5141 73.5833 82.4141 71.45C79.3141 69.2833 75.5807 68.2 71.2141 68.2H61.7641V142.8ZM149.436 116.2C149.436 113.967 148.936 112.083 147.936 110.55C146.936 108.983 145.453 107.8 143.486 107C141.519 106.2 139.086 105.8 136.186 105.8H129.686V105.6H136.186C139.086 105.6 141.519 105.25 143.486 104.55C145.453 103.817 146.936 102.717 147.936 101.25C148.936 99.7833 149.436 97.9333 149.436 95.7H149.636V116.2H149.436ZM164.686 68V88.5H164.486C164.486 84.9333 163.903 81.6167 162.736 78.55C161.569 75.45 159.736 72.95 157.236 71.05C154.769 69.15 151.586 68.2 147.686 68.2H131.686V142.8H141.686V143H113.186V142.8H122.136V68.2H113.186V68H164.686Z" fill="black"/>
<defs>
<filter id="filter0_d_0_1" x="0.5" y="0.5" width="225" height="225" filterUnits="userSpaceOnUse" color-interpolation-filters="sRGB">
<feFlood flood-opacity="0" result="BackgroundImageFix"/>
<feColorMatrix in="SourceAlpha" type="matrix" values="0 0 0 0 0 0 0 0 0 0 0 0 0 0 0 0 0 0 127 0" result="hardAlpha"/>
<feOffset dx="9" dy="7"/>
<feGaussianBlur stdDeviation="6"/>
<feComposite in2="hardAlpha" operator="out"/>
<feColorMatrix type="matrix" values="0 0 0 0 0 0 0 0 0 0 0 0 0 0 0 0 0 0 0.25 0"/>
<feBlend mode="normal" in2="BackgroundImageFix" result="effect1_dropShadow_0_1"/>
<feBlend mode="normal" in="SourceGraphic" in2="effect1_dropShadow_0_1" result="shape"/>
</filter>
</defs>
</svg>
